<svg width="590" height="362" viewBox="0 0 590 362" fill="none" xmlns="http://www.w3.org/2000/svg">
<g clip-path="url(#clip0_101_25)">
<path d="M291.53 361.239C289.583 361.239 287.65 360.729 285.943 359.746L268.16 349.218C265.504 347.733 266.8 347.207 267.676 346.905C271.218 345.665 271.936 345.385 275.716 343.238C276.114 343.011 276.634 343.091 277.04 343.331L290.702 351.438C291.195 351.705 291.895 351.705 292.352 351.438L345.619 320.691C346.112 320.411 346.432 319.838 346.432 319.251V257.785C346.432 257.172 346.112 256.625 345.608 256.318L292.363 225.598C291.87 225.305 291.216 225.305 290.723 225.598L237.488 256.318C236.972 256.612 236.644 257.185 236.644 257.772V319.238C236.644 319.825 236.964 320.385 237.471 320.665L252.058 329.091C259.978 333.051 264.818 328.385 264.818 323.691V263.025C264.818 262.158 265.498 261.492 266.364 261.492H273.111C273.951 261.492 274.644 262.158 274.644 263.025V323.718C274.644 334.278 268.884 340.345 258.871 340.345C255.791 340.345 253.364 340.345 246.591 337.011L232.618 328.958C229.164 326.958 227.031 323.225 227.031 319.238V257.772C227.031 253.772 229.164 250.038 232.618 248.065L285.938 217.305C289.311 215.398 293.791 215.398 297.138 217.305L350.391 248.078C353.831 250.065 355.977 253.785 355.977 257.785V319.251C355.977 323.238 353.831 326.958 350.391 328.958L297.138 359.718C295.431 360.705 293.498 361.211 291.524 361.211" fill="#689F63"/>
<path d="M307.983 318.885C284.676 318.885 279.79 308.186 279.79 299.213C279.79 298.359 280.478 297.679 281.332 297.679H288.212C288.972 297.679 289.612 298.233 289.732 298.983C290.772 305.994 293.866 309.53 307.959 309.53C319.185 309.53 323.959 306.994 323.959 301.041C323.959 297.614 322.599 295.067 305.159 293.361C290.572 291.921 281.559 288.707 281.559 277.041C281.559 266.294 290.626 259.894 305.812 259.894C322.865 259.894 331.319 265.814 332.385 278.534C332.425 278.974 332.265 279.401 331.972 279.721C331.679 280.028 331.265 280.214 330.839 280.214H323.919C323.199 280.214 322.572 279.708 322.425 279.014C320.759 271.641 316.732 269.281 305.786 269.281C293.532 269.281 292.106 273.548 292.106 276.748C292.106 280.628 293.786 281.761 310.319 283.947C326.692 286.121 334.465 289.187 334.465 300.694C334.465 312.294 324.785 318.947 307.906 318.947M372.785 253.761H374.572C376.039 253.761 376.319 252.734 376.319 252.134C376.319 250.561 375.239 250.561 374.639 250.561H372.799L372.785 253.761ZM370.612 248.721H374.572C375.932 248.721 378.599 248.721 378.599 251.761C378.599 253.881 377.239 254.321 376.425 254.588C378.012 254.694 378.119 255.734 378.332 257.201C378.439 258.121 378.612 259.708 378.932 260.241H376.492C376.425 259.708 376.052 256.774 376.052 256.614C375.892 255.961 375.665 255.641 374.852 255.641H372.839V260.254H370.612V248.721ZM365.852 254.454C365.852 259.228 369.705 263.094 374.439 263.094C379.212 263.094 383.065 259.148 383.065 254.454C383.065 249.668 379.159 245.868 374.425 245.868C369.759 245.868 365.839 249.614 365.839 254.441M384.719 254.481C384.719 260.134 380.092 264.748 374.452 264.748C368.852 264.748 364.185 260.188 364.185 254.481C364.185 248.668 368.959 244.214 374.452 244.214C379.985 244.214 384.705 248.681 384.705 254.481" fill="#689F63"/>
<path fill-rule="evenodd" clip-rule="evenodd" d="M126.582 120.733C126.582 118.28 125.288 116.026 123.171 114.806L66.6966 82.3129C65.7433 81.7529 64.6753 81.4596 63.5926 81.4196H63.0086C61.926 81.4596 60.858 81.7529 59.8886 82.3129L3.41673 114.806C1.31273 116.033 0.000732422 118.286 0.000732422 120.739L0.124732 208.259C0.124732 209.473 0.751398 210.606 1.81806 211.206C2.85806 211.846 4.16472 211.846 5.20472 211.206L38.778 191.979C40.898 190.718 42.1913 188.489 42.1913 186.059V145.173C42.1913 142.733 43.4847 140.479 45.598 139.266L59.8913 131.034C60.9526 130.421 62.118 130.117 63.3046 130.117C64.4726 130.117 65.6646 130.418 66.6966 131.033L80.9832 139.262C83.0979 140.475 84.3966 142.729 84.3966 145.169V186.053C84.3966 188.479 85.7072 190.719 87.8166 191.973L121.369 211.186C122.422 211.813 123.733 211.813 124.782 211.186C125.816 210.586 126.472 209.453 126.472 208.239L126.582 120.733ZM393.072 166.301C393.072 166.91 392.748 167.474 392.219 167.775L372.821 178.957C372.295 179.259 371.644 179.259 371.119 178.957L351.719 167.775C351.185 167.473 350.865 166.909 350.865 166.301V143.906C350.865 143.295 351.185 142.733 351.705 142.426L371.092 131.226C371.625 130.919 372.279 130.919 372.812 131.226L392.212 142.426C392.745 142.733 393.065 143.295 393.065 143.906L393.072 166.301ZM398.312 0.431711C397.253 -0.157622 395.965 -0.141622 394.92 0.467711C393.88 1.08104 393.237 2.20104 393.237 3.41437V90.0809C393.237 90.9342 392.784 91.7209 392.045 92.1475C391.312 92.5742 390.399 92.5742 389.659 92.1475L375.512 83.9996C373.405 82.7809 370.811 82.7809 368.696 83.9996L312.203 116.604C310.092 117.817 308.789 120.07 308.789 122.497V187.723C308.789 190.163 310.092 192.403 312.203 193.63L368.696 226.257C370.805 227.47 373.403 227.47 375.519 226.257L432.012 193.617C434.119 192.39 435.425 190.15 435.425 187.71V25.1503C435.425 22.6757 434.079 20.3997 431.919 19.1903L398.312 0.431711ZM586.436 143.317C588.534 142.098 589.826 139.847 589.826 137.421V121.613C589.826 119.181 588.533 116.937 586.43 115.713L530.297 83.1262C528.177 81.8996 525.577 81.8996 523.457 83.1262L466.977 115.726C464.857 116.953 463.564 119.193 463.564 121.633V186.833C463.564 189.286 464.884 191.553 467.004 192.766L523.124 224.753C525.19 225.939 527.724 225.953 529.817 224.793L563.764 205.926C564.83 205.326 565.51 204.193 565.51 202.966C565.51 201.739 564.857 200.593 563.79 199.993L506.964 167.379C505.897 166.779 505.244 165.646 505.244 164.433V143.979C505.244 142.758 505.884 141.633 506.95 141.025L524.63 130.825C525.684 130.211 526.977 130.211 528.03 130.825L545.724 141.025C546.777 141.625 547.43 142.758 547.43 143.971V160.051C547.43 161.265 548.084 162.398 549.137 163.011C550.19 163.611 551.497 163.611 552.55 162.998L586.436 143.317Z" fill="white"/>
<path fill-rule="evenodd" clip-rule="evenodd" d="M526.05 140.266C526.45 140.03 526.952 140.03 527.357 140.266L538.197 146.52C538.602 146.754 538.85 147.186 538.85 147.653V160.173C538.85 160.64 538.602 161.072 538.197 161.306L527.357 167.56C526.952 167.796 526.45 167.796 526.05 167.56L515.217 161.306C514.804 161.072 514.55 160.64 514.55 160.173V147.653C514.55 147.186 514.79 146.754 515.204 146.52L526.05 140.266Z" fill="#689F63"/>
<mask id="mask0_101_25" style="mask-type:luminance" maskUnits="userSpaceOnUse" x="154" y="82" width="127" height="144">
<path d="M214.299 83.4518L158.126 115.874C156.022 117.088 154.731 119.328 154.731 121.749V186.64C154.731 189.062 156.022 191.301 158.126 192.514L214.303 224.962C216.403 226.172 218.992 226.172 221.09 224.962L277.258 192.514C279.351 191.301 280.644 189.061 280.644 186.64V121.749C280.644 119.328 279.351 117.088 277.244 115.874L221.084 83.4518C220.031 82.8478 218.858 82.5452 217.684 82.5452C216.511 82.5452 215.338 82.8478 214.284 83.4518" fill="white"/>
</mask>
<g mask="url(#mask0_101_25)">
<path d="M337.409 110.369L179.123 32.7826L97.9631 198.348L256.245 275.938L337.409 110.369Z" fill="url(#paint0_linear_101_25)"/>
</g>
<mask id="mask1_101_25" style="mask-type:luminance" maskUnits="userSpaceOnUse" x="156" y="82" width="123" height="144">
<path d="M156.123 190.76C156.66 191.457 157.332 192.061 158.123 192.514L206.31 220.348L214.336 224.961C215.536 225.654 216.904 225.948 218.248 225.848C218.696 225.812 219.144 225.728 219.582 225.604L278.827 117.124C278.373 116.63 277.843 116.217 277.248 115.87L240.467 94.6305L221.024 83.4438C220.472 83.1238 219.874 82.8972 219.264 82.7372L156.123 190.76Z" fill="white"/>
</mask>
<g mask="url(#mask1_101_25)">
<path d="M87.6858 133.317L199.452 284.587L347.265 175.38L235.492 24.1133L87.6858 133.317Z" fill="url(#paint1_linear_101_25)"/>
</g>
<mask id="mask2_101_25" style="mask-type:luminance" maskUnits="userSpaceOnUse" x="158" y="82" width="123" height="144">
<path d="M217.014 82.5825C216.071 82.6759 215.15 82.9692 214.3 83.4518L158.287 115.781L218.687 225.794C219.527 225.674 220.354 225.394 221.1 224.962L277.274 192.514C279.007 191.509 280.194 189.808 280.554 187.88L218.98 82.6932C218.527 82.6038 218.074 82.5572 217.607 82.5572C217.42 82.5572 217.234 82.5665 217.047 82.5838" fill="white"/>
</mask>
<g mask="url(#mask2_101_25)">
<path d="M158.286 82.5572V225.797H280.53V82.5572H158.286Z" fill="url(#paint2_linear_101_25)"/>
</g>
</g>
<defs>
<linearGradient id="paint0_linear_101_25" x1="258.219" y1="71.4538" x2="177.064" y2="237.008" gradientUnits="userSpaceOnUse">
<stop offset="0.3" stop-color="#3E863D"/>
<stop offset="0.5" stop-color="#55934F"/>
<stop offset="0.8" stop-color="#5AAD45"/>
</linearGradient>
<linearGradient id="paint1_linear_101_25" x1="144.239" y1="209.819" x2="292.058" y2="100.599" gradientUnits="userSpaceOnUse">
<stop offset="0.57" stop-color="#3E863D"/>
<stop offset="0.72" stop-color="#619857"/>
<stop offset="1" stop-color="#76AC64"/>
</linearGradient>
<linearGradient id="paint2_linear_101_25" x1="158.327" y1="154.181" x2="280.553" y2="154.181" gradientUnits="userSpaceOnUse">
<stop offset="0.16" stop-color="#6BBF47"/>
<stop offset="0.38" stop-color="#79B461"/>
<stop offset="0.47" stop-color="#75AC64"/>
<stop offset="0.7" stop-color="#659E5A"/>
<stop offset="0.9" stop-color="#3E863D"/>
</linearGradient>
<clipPath id="clip0_101_25">
<rect width="589.827" height="361.238" fill="white"/>
</clipPath>
</defs>
</svg>
